<?xml version="1.0" encoding="UTF-8" standalone="no"?><!DOCTYPE svg PUBLIC "-//W3C//DTD SVG 1.1//EN" "http://www.w3.org/Graphics/SVG/1.1/DTD/svg11.dtd"><!-- Generated by graphviz version 2.40.1 (20161225.0304)
 --><!-- Title: deployment_process Pages: 1 --><svg xmlns="http://www.w3.org/2000/svg" xmlns:xlink="http://www.w3.org/1999/xlink" width="235pt" height="913pt" viewBox="0.00 0.00 235.39 912.80">
<g id="graph0" class="graph" transform="scale(1 1) rotate(0) translate(4 908.8)">
<title>deployment_process</title>
<polygon fill="#ffffff" stroke="transparent" points="-4,4 -4,-908.8 231.3884,-908.8 231.3884,4 -4,4"/>
<!-- Version Control Repository -->
<g id="node1" class="node">
<title>Version Control Repository</title>
<polygon fill="#c6e2ff" stroke="#000000" points="199.543,-905.0019 31.8454,-905.0019 27.8454,-901.0019 27.8454,-862.1981 195.543,-862.1981 199.543,-866.1981 199.543,-905.0019"/>
<polyline fill="none" stroke="#000000" points="195.543,-901.0019 27.8454,-901.0019 "/>
<polyline fill="none" stroke="#000000" points="195.543,-901.0019 195.543,-862.1981 "/>
<polyline fill="none" stroke="#000000" points="195.543,-901.0019 199.543,-905.0019 "/>
<text text-anchor="middle" x="113.6942" y="-880" font-family="Helvetica,sans-Serif" font-size="12.00" fill="#000000">Version Control Repository</text>
</g>
<!-- Continuous Integration &amp; Deployment -->
<g id="node2" class="node">
<title>Continuous Integration &amp; Deployment</title>
<polygon fill="#ffeec6" stroke="#000000" points="227.5829,-826.6019 3.8055,-826.6019 -.1945,-822.6019 -.1945,-783.7981 223.5829,-783.7981 227.5829,-787.7981 227.5829,-826.6019"/>
<polyline fill="none" stroke="#000000" points="223.5829,-822.6019 -.1945,-822.6019 "/>
<polyline fill="none" stroke="#000000" points="223.5829,-822.6019 223.5829,-783.7981 "/>
<polyline fill="none" stroke="#000000" points="223.5829,-822.6019 227.5829,-826.6019 "/>
<text text-anchor="middle" x="113.6942" y="-801.6" font-family="Helvetica,sans-Serif" font-size="12.00" fill="#000000">Continuous Integration &amp; Deployment</text>
</g>
<!-- Version Control Repository&#45;&gt;Continuous Integration &amp; Deployment -->
<g id="edge1" class="edge">
<title>Version Control Repository-&gt;Continuous Integration &amp; Deployment</title>
<path fill="none" stroke="#707070" d="M113.6942,-862.1769C113.6942,-854.3122 113.6942,-845.2364 113.6942,-836.6729"/>
<polygon fill="#707070" stroke="#707070" points="113.6942,-826.5972 118.1943,-836.5972 113.6942,-831.5972 113.6943,-836.5972 113.6943,-836.5972 113.6943,-836.5972 113.6942,-831.5972 109.1943,-836.5973 113.6942,-826.5972 113.6942,-826.5972"/>
</g>
<!-- Build &amp; Package Artifacts -->
<g id="node3" class="node">
<title>Build &amp; Package Artifacts</title>
<polygon fill="#ffcfc6" stroke="#000000" points="194.8933,-748.2019 36.4951,-748.2019 32.4951,-744.2019 32.4951,-705.3981 190.8933,-705.3981 194.8933,-709.3981 194.8933,-748.2019"/>
<polyline fill="none" stroke="#000000" points="190.8933,-744.2019 32.4951,-744.2019 "/>
<polyline fill="none" stroke="#000000" points="190.8933,-744.2019 190.8933,-705.3981 "/>
<polyline fill="none" stroke="#000000" points="190.8933,-744.2019 194.8933,-748.2019 "/>
<text text-anchor="middle" x="113.6942" y="-723.2" font-family="Helvetica,sans-Serif" font-size="12.00" fill="#000000">Build &amp; Package Artifacts</text>
</g>
<!-- Continuous Integration &amp; Deployment&#45;&gt;Build &amp; Package Artifacts -->
<g id="edge2" class="edge">
<title>Continuous Integration &amp; Deployment-&gt;Build &amp; Package Artifacts</title>
<path fill="none" stroke="#707070" d="M113.6942,-783.7769C113.6942,-775.9122 113.6942,-766.8364 113.6942,-758.2729"/>
<polygon fill="#707070" stroke="#707070" points="113.6942,-748.1972 118.1943,-758.1972 113.6942,-753.1972 113.6943,-758.1972 113.6943,-758.1972 113.6943,-758.1972 113.6942,-753.1972 109.1943,-758.1973 113.6942,-748.1972 113.6942,-748.1972"/>
</g>
<!-- Infrastructure Configuration -->
<g id="node4" class="node">
<title>Infrastructure Configuration</title>
<polygon fill="#ffd6ff" stroke="#000000" points="200.5554,-669.8019 30.833,-669.8019 26.833,-665.8019 26.833,-626.9981 196.5554,-626.9981 200.5554,-630.9981 200.5554,-669.8019"/>
<polyline fill="none" stroke="#000000" points="196.5554,-665.8019 26.833,-665.8019 "/>
<polyline fill="none" stroke="#000000" points="196.5554,-665.8019 196.5554,-626.9981 "/>
<polyline fill="none" stroke="#000000" points="196.5554,-665.8019 200.5554,-669.8019 "/>
<text text-anchor="middle" x="113.6942" y="-644.8" font-family="Helvetica,sans-Serif" font-size="12.00" fill="#000000">Infrastructure Configuration</text>
</g>
<!-- Build &amp; Package Artifacts&#45;&gt;Infrastructure Configuration -->
<g id="edge3" class="edge">
<title>Build &amp; Package Artifacts-&gt;Infrastructure Configuration</title>
<path fill="none" stroke="#707070" d="M113.6942,-705.3769C113.6942,-697.5122 113.6942,-688.4364 113.6942,-679.8729"/>
<polygon fill="#707070" stroke="#707070" points="113.6942,-669.7972 118.1943,-679.7972 113.6942,-674.7972 113.6943,-679.7972 113.6943,-679.7972 113.6943,-679.7972 113.6942,-674.7972 109.1943,-679.7973 113.6942,-669.7972 113.6942,-669.7972"/>
</g>
<!-- Cloud Provider Infrastructure -->
<g id="node5" class="node">
<title>Cloud Provider Infrastructure</title>
<polygon fill="#f6ffc6" stroke="#000000" points="204.5473,-591.4019 26.8411,-591.4019 22.8411,-587.4019 22.8411,-548.5981 200.5473,-548.5981 204.5473,-552.5981 204.5473,-591.4019"/>
<polyline fill="none" stroke="#000000" points="200.5473,-587.4019 22.8411,-587.4019 "/>
<polyline fill="none" stroke="#000000" points="200.5473,-587.4019 200.5473,-548.5981 "/>
<polyline fill="none" stroke="#000000" points="200.5473,-587.4019 204.5473,-591.4019 "/>
<text text-anchor="middle" x="113.6942" y="-566.4" font-family="Helvetica,sans-Serif" font-size="12.00" fill="#000000">Cloud Provider Infrastructure</text>
</g>
<!-- Infrastructure Configuration&#45;&gt;Cloud Provider Infrastructure -->
<g id="edge4" class="edge">
<title>Infrastructure Configuration-&gt;Cloud Provider Infrastructure</title>
<path fill="none" stroke="#707070" d="M113.6942,-626.9769C113.6942,-619.1122 113.6942,-610.0364 113.6942,-601.4729"/>
<polygon fill="#707070" stroke="#707070" points="113.6942,-591.3972 118.1943,-601.3972 113.6942,-596.3972 113.6943,-601.3972 113.6943,-601.3972 113.6943,-601.3972 113.6942,-596.3972 109.1943,-601.3973 113.6942,-591.3972 113.6942,-591.3972"/>
</g>
<!-- Model Serving Infrastructure -->
<g id="node6" class="node">
<title>Model Serving Infrastructure</title>
<polygon fill="#d6ffc6" stroke="#000000" points="202.8845,-513.0019 28.5039,-513.0019 24.5039,-509.0019 24.5039,-470.1981 198.8845,-470.1981 202.8845,-474.1981 202.8845,-513.0019"/>
<polyline fill="none" stroke="#000000" points="198.8845,-509.0019 24.5039,-509.0019 "/>
<polyline fill="none" stroke="#000000" points="198.8845,-509.0019 198.8845,-470.1981 "/>
<polyline fill="none" stroke="#000000" points="198.8845,-509.0019 202.8845,-513.0019 "/>
<text text-anchor="middle" x="113.6942" y="-488" font-family="Helvetica,sans-Serif" font-size="12.00" fill="#000000">Model Serving Infrastructure</text>
</g>
<!-- Cloud Provider Infrastructure&#45;&gt;Model Serving Infrastructure -->
<g id="edge5" class="edge">
<title>Cloud Provider Infrastructure-&gt;Model Serving Infrastructure</title>
<path fill="none" stroke="#707070" d="M113.6942,-548.5769C113.6942,-540.7122 113.6942,-531.6364 113.6942,-523.0729"/>
<polygon fill="#707070" stroke="#707070" points="113.6942,-512.9972 118.1943,-522.9972 113.6942,-517.9972 113.6943,-522.9972 113.6943,-522.9972 113.6943,-522.9972 113.6942,-517.9972 109.1943,-522.9973 113.6942,-512.9972 113.6942,-512.9972"/>
</g>
<!-- Monitoring &amp; Logging -->
<g id="node7" class="node">
<title>Monitoring &amp; Logging</title>
<polygon fill="#ffd9d6" stroke="#000000" points="184.5587,-434.6019 46.8297,-434.6019 42.8297,-430.6019 42.8297,-391.7981 180.5587,-391.7981 184.5587,-395.7981 184.5587,-434.6019"/>
<polyline fill="none" stroke="#000000" points="180.5587,-430.6019 42.8297,-430.6019 "/>
<polyline fill="none" stroke="#000000" points="180.5587,-430.6019 180.5587,-391.7981 "/>
<polyline fill="none" stroke="#000000" points="180.5587,-430.6019 184.5587,-434.6019 "/>
<text text-anchor="middle" x="113.6942" y="-409.6" font-family="Helvetica,sans-Serif" font-size="12.00" fill="#000000">Monitoring &amp; Logging</text>
</g>
<!-- Model Serving Infrastructure&#45;&gt;Monitoring &amp; Logging -->
<g id="edge6" class="edge">
<title>Model Serving Infrastructure-&gt;Monitoring &amp; Logging</title>
<path fill="none" stroke="#707070" d="M113.6942,-470.1769C113.6942,-462.3122 113.6942,-453.2364 113.6942,-444.6729"/>
<polygon fill="#707070" stroke="#707070" points="113.6942,-434.5972 118.1943,-444.5972 113.6942,-439.5972 113.6943,-444.5972 113.6943,-444.5972 113.6943,-444.5972 113.6942,-439.5972 109.1943,-444.5973 113.6942,-434.5972 113.6942,-434.5972"/>
</g>
<!-- Testing &amp; Quality Control -->
<g id="node8" class="node">
<title>Testing &amp; Quality Control</title>
<polygon fill="#ffd9ff" stroke="#000000" points="194.547,-356.2019 36.8414,-356.2019 32.8414,-352.2019 32.8414,-313.3981 190.547,-313.3981 194.547,-317.3981 194.547,-356.2019"/>
<polyline fill="none" stroke="#000000" points="190.547,-352.2019 32.8414,-352.2019 "/>
<polyline fill="none" stroke="#000000" points="190.547,-352.2019 190.547,-313.3981 "/>
<polyline fill="none" stroke="#000000" points="190.547,-352.2019 194.547,-356.2019 "/>
<text text-anchor="middle" x="113.6942" y="-331.2" font-family="Helvetica,sans-Serif" font-size="12.00" fill="#000000">Testing &amp; Quality Control</text>
</g>
<!-- Monitoring &amp; Logging&#45;&gt;Testing &amp; Quality Control -->
<g id="edge7" class="edge">
<title>Monitoring &amp; Logging-&gt;Testing &amp; Quality Control</title>
<path fill="none" stroke="#707070" d="M113.6942,-391.7769C113.6942,-383.9122 113.6942,-374.8364 113.6942,-366.2729"/>
<polygon fill="#707070" stroke="#707070" points="113.6942,-356.1972 118.1943,-366.1972 113.6942,-361.1972 113.6943,-366.1972 113.6943,-366.1972 113.6943,-366.1972 113.6942,-361.1972 109.1943,-366.1973 113.6942,-356.1972 113.6942,-356.1972"/>
</g>
<!-- Deployment Verification -->
<g id="node9" class="node">
<title>Deployment Verification</title>
<polygon fill="#d6e9ff" stroke="#000000" points="190.8773,-277.8019 40.5111,-277.8019 36.5111,-273.8019 36.5111,-234.9981 186.8773,-234.9981 190.8773,-238.9981 190.8773,-277.8019"/>
<polyline fill="none" stroke="#000000" points="186.8773,-273.8019 36.5111,-273.8019 "/>
<polyline fill="none" stroke="#000000" points="186.8773,-273.8019 186.8773,-234.9981 "/>
<polyline fill="none" stroke="#000000" points="186.8773,-273.8019 190.8773,-277.8019 "/>
<text text-anchor="middle" x="113.6942" y="-252.8" font-family="Helvetica,sans-Serif" font-size="12.00" fill="#000000">Deployment Verification</text>
</g>
<!-- Testing &amp; Quality Control&#45;&gt;Deployment Verification -->
<g id="edge8" class="edge">
<title>Testing &amp; Quality Control-&gt;Deployment Verification</title>
<path fill="none" stroke="#707070" d="M113.6942,-313.3769C113.6942,-305.5122 113.6942,-296.4364 113.6942,-287.8729"/>
<polygon fill="#707070" stroke="#707070" points="113.6942,-277.7972 118.1943,-287.7972 113.6942,-282.7972 113.6943,-287.7972 113.6943,-287.7972 113.6943,-287.7972 113.6942,-282.7972 109.1943,-287.7973 113.6942,-277.7972 113.6942,-277.7972"/>
</g>
<!-- Release &amp; Deployment -->
<g id="node10" class="node">
<title>Release &amp; Deployment</title>
<polygon fill="#e6d6ff" stroke="#000000" points="188.8849,-199.4019 42.5035,-199.4019 38.5035,-195.4019 38.5035,-156.5981 184.8849,-156.5981 188.8849,-160.5981 188.8849,-199.4019"/>
<polyline fill="none" stroke="#000000" points="184.8849,-195.4019 38.5035,-195.4019 "/>
<polyline fill="none" stroke="#000000" points="184.8849,-195.4019 184.8849,-156.5981 "/>
<polyline fill="none" stroke="#000000" points="184.8849,-195.4019 188.8849,-199.4019 "/>
<text text-anchor="middle" x="113.6942" y="-174.4" font-family="Helvetica,sans-Serif" font-size="12.00" fill="#000000">Release &amp; Deployment</text>
</g>
<!-- Deployment Verification&#45;&gt;Release &amp; Deployment -->
<g id="edge9" class="edge">
<title>Deployment Verification-&gt;Release &amp; Deployment</title>
<path fill="none" stroke="#707070" d="M113.6942,-234.9769C113.6942,-227.1122 113.6942,-218.0364 113.6942,-209.4729"/>
<polygon fill="#707070" stroke="#707070" points="113.6942,-199.3972 118.1943,-209.3972 113.6942,-204.3972 113.6943,-209.3972 113.6943,-209.3972 113.6943,-209.3972 113.6942,-204.3972 109.1943,-209.3973 113.6942,-199.3972 113.6942,-199.3972"/>
</g>
<!-- Post&#45;Deployment Testing -->
<g id="node11" class="node">
<title>Post-Deployment Testing</title>
<polygon fill="#fed6ff" stroke="#000000" points="194.8825,-121.0019 36.5059,-121.0019 32.5059,-117.0019 32.5059,-78.1981 190.8825,-78.1981 194.8825,-82.1981 194.8825,-121.0019"/>
<polyline fill="none" stroke="#000000" points="190.8825,-117.0019 32.5059,-117.0019 "/>
<polyline fill="none" stroke="#000000" points="190.8825,-117.0019 190.8825,-78.1981 "/>
<polyline fill="none" stroke="#000000" points="190.8825,-117.0019 194.8825,-121.0019 "/>
<text text-anchor="middle" x="113.6942" y="-96" font-family="Helvetica,sans-Serif" font-size="12.00" fill="#000000">Post-Deployment Testing</text>
</g>
<!-- Release &amp; Deployment&#45;&gt;Post&#45;Deployment Testing -->
<g id="edge10" class="edge">
<title>Release &amp; Deployment-&gt;Post-Deployment Testing</title>
<path fill="none" stroke="#707070" d="M113.6942,-156.5769C113.6942,-148.7122 113.6942,-139.6364 113.6942,-131.0729"/>
<polygon fill="#707070" stroke="#707070" points="113.6942,-120.9972 118.1943,-130.9972 113.6942,-125.9972 113.6943,-130.9972 113.6943,-130.9972 113.6943,-130.9972 113.6942,-125.9972 109.1943,-130.9973 113.6942,-120.9972 113.6942,-120.9972"/>
</g>
<!-- Continuous Monitoring &amp; Feedback -->
<g id="node12" class="node">
<title>Continuous Monitoring &amp; Feedback</title>
<polygon fill="#d6ffeb" stroke="#000000" points="221.5757,-42.6019 9.8127,-42.6019 5.8127,-38.6019 5.8127,.2019 217.5757,.2019 221.5757,-3.7981 221.5757,-42.6019"/>
<polyline fill="none" stroke="#000000" points="217.5757,-38.6019 5.8127,-38.6019 "/>
<polyline fill="none" stroke="#000000" points="217.5757,-38.6019 217.5757,.2019 "/>
<polyline fill="none" stroke="#000000" points="217.5757,-38.6019 221.5757,-42.6019 "/>
<text text-anchor="middle" x="113.6942" y="-17.6" font-family="Helvetica,sans-Serif" font-size="12.00" fill="#000000">Continuous Monitoring &amp; Feedback</text>
</g>
<!-- Post&#45;Deployment Testing&#45;&gt;Continuous Monitoring &amp; Feedback -->
<g id="edge11" class="edge">
<title>Post-Deployment Testing-&gt;Continuous Monitoring &amp; Feedback</title>
<path fill="none" stroke="#707070" d="M113.6942,-78.1769C113.6942,-70.3122 113.6942,-61.2364 113.6942,-52.6729"/>
<polygon fill="#707070" stroke="#707070" points="113.6942,-42.5972 118.1943,-52.5972 113.6942,-47.5972 113.6943,-52.5972 113.6943,-52.5972 113.6943,-52.5972 113.6942,-47.5972 109.1943,-52.5973 113.6942,-42.5972 113.6942,-42.5972"/>
</g>
</g>
</svg>