<?xml version="1.0" encoding="UTF-8" standalone="no"?><!DOCTYPE svg PUBLIC "-//W3C//DTD SVG 1.1//EN" "http://www.w3.org/Graphics/SVG/1.1/DTD/svg11.dtd"><!-- Generated by graphviz version 2.40.1 (20161225.0304)
 --><!-- Title: deployment_process Pages: 1 --><svg xmlns="http://www.w3.org/2000/svg" xmlns:xlink="http://www.w3.org/1999/xlink" width="307pt" height="440pt" viewBox="0.00 0.00 307.00 440.00">
<g id="graph0" class="graph" transform="scale(1 1) rotate(0) translate(4 436)">
<title>deployment_process</title>
<polygon fill="#ffffff" stroke="transparent" points="-4,4 -4,-436 303,-436 303,4 -4,4"/>
<g id="clust1" class="cluster">
<title>cluster_presentation_tier</title>
<path fill="#f5f5f5" stroke="#000000" d="M37,-340.8C37,-340.8 125,-340.8 125,-340.8 131,-340.8 137,-346.8 137,-352.8 137,-352.8 137,-412 137,-412 137,-418 131,-424 125,-424 125,-424 37,-424 37,-424 31,-424 25,-418 25,-412 25,-412 25,-352.8 25,-352.8 25,-346.8 31,-340.8 37,-340.8"/>
<text text-anchor="middle" x="81" y="-407.4" font-family="Times,serif" font-size="14.00" fill="#000000">Presentation Tier</text>
</g>
<g id="clust2" class="cluster">
<title>cluster_logic_tier</title>
<path fill="#f5f5f5" stroke="#000000" d="M30,-110.2C30,-110.2 108,-110.2 108,-110.2 114,-110.2 120,-116.2 120,-122.2 120,-122.2 120,-298.8 120,-298.8 120,-304.8 114,-310.8 108,-310.8 108,-310.8 30,-310.8 30,-310.8 24,-310.8 18,-304.8 18,-298.8 18,-298.8 18,-122.2 18,-122.2 18,-116.2 24,-110.2 30,-110.2"/>
<text text-anchor="middle" x="69" y="-294.2" font-family="Times,serif" font-size="14.00" fill="#000000">Logic Tier</text>
</g>
<g id="clust3" class="cluster">
<title>cluster_data_tier</title>
<path fill="#f5f5f5" stroke="#000000" d="M20,-8C20,-8 92,-8 92,-8 98,-8 104,-14 104,-20 104,-20 104,-79.2 104,-79.2 104,-85.2 98,-91.2 92,-91.2 92,-91.2 20,-91.2 20,-91.2 14,-91.2 8,-85.2 8,-79.2 8,-79.2 8,-20 8,-20 8,-14 14,-8 20,-8"/>
<text text-anchor="middle" x="56" y="-74.6" font-family="Times,serif" font-size="14.00" fill="#000000">Data Tier</text>
</g>
<g id="clust4" class="cluster">
<title>cluster_model_serving</title>
<path fill="#f5f5f5" stroke="#000000" d="M124,-8C124,-8 279,-8 279,-8 285,-8 291,-14 291,-20 291,-20 291,-79.2 291,-79.2 291,-85.2 285,-91.2 279,-91.2 279,-91.2 124,-91.2 124,-91.2 118,-91.2 112,-85.2 112,-79.2 112,-79.2 112,-20 112,-20 112,-14 118,-8 124,-8"/>
<text text-anchor="middle" x="201.5" y="-74.6" font-family="Times,serif" font-size="14.00" fill="#000000">Model Serving Infrastructure</text>
</g>
<!-- Client -->
<g id="node1" class="node">
<title>Client</title>
<path fill="#e8f0fe" stroke="#000000" d="M86.1658,-391.4019C86.1658,-391.4019 51.8342,-391.4019 51.8342,-391.4019 45.8342,-391.4019 39.8342,-385.4019 39.8342,-379.4019 39.8342,-379.4019 39.8342,-360.5981 39.8342,-360.5981 39.8342,-354.5981 45.8342,-348.5981 51.8342,-348.5981 51.8342,-348.5981 86.1658,-348.5981 86.1658,-348.5981 92.1658,-348.5981 98.1658,-354.5981 98.1658,-360.5981 98.1658,-360.5981 98.1658,-379.4019 98.1658,-379.4019 98.1658,-385.4019 92.1658,-391.4019 86.1658,-391.4019"/>
<text text-anchor="middle" x="69" y="-366.4" font-family="Helvetica,sans-Serif" font-size="12.00" fill="#000000">Client</text>
</g>
<!-- APIServer -->
<g id="node3" class="node">
<title>APIServer</title>
<path fill="#e8f0fe" stroke="#000000" d="M100.0092,-278.2019C100.0092,-278.2019 37.9908,-278.2019 37.9908,-278.2019 31.9908,-278.2019 25.9908,-272.2019 25.9908,-266.2019 25.9908,-266.2019 25.9908,-247.3981 25.9908,-247.3981 25.9908,-241.3981 31.9908,-235.3981 37.9908,-235.3981 37.9908,-235.3981 100.0092,-235.3981 100.0092,-235.3981 106.0092,-235.3981 112.0092,-241.3981 112.0092,-247.3981 112.0092,-247.3981 112.0092,-266.2019 112.0092,-266.2019 112.0092,-272.2019 106.0092,-278.2019 100.0092,-278.2019"/>
<text text-anchor="middle" x="69" y="-253.2" font-family="Helvetica,sans-Serif" font-size="12.00" fill="#000000">API Server</text>
</g>
<!-- Client&#45;&gt;APIServer -->
<g id="edge1" class="edge">
<title>Client-&gt;APIServer</title>
<path fill="none" stroke="#707070" d="M69,-348.7079C69,-331.7399 69,-307.7229 69,-288.4955"/>
<polygon fill="#707070" stroke="#707070" points="69,-278.3815 73.5001,-288.3814 69,-283.3815 69.0001,-288.3815 69.0001,-288.3815 69.0001,-288.3815 69,-283.3815 64.5001,-288.3815 69,-278.3815 69,-278.3815"/>
<text text-anchor="middle" x="97.065" y="-321.8" font-family="Helvetica,sans-Serif" font-size="10.00" fill="#000000">API Request</text>
</g>
<!-- Server -->
<g id="node2" class="node">
<title>Server</title>
<path fill="#e8f0fe" stroke="#000000" d="M88.8349,-160.8019C88.8349,-160.8019 49.1651,-160.8019 49.1651,-160.8019 43.1651,-160.8019 37.1651,-154.8019 37.1651,-148.8019 37.1651,-148.8019 37.1651,-129.9981 37.1651,-129.9981 37.1651,-123.9981 43.1651,-117.9981 49.1651,-117.9981 49.1651,-117.9981 88.8349,-117.9981 88.8349,-117.9981 94.8349,-117.9981 100.8349,-123.9981 100.8349,-129.9981 100.8349,-129.9981 100.8349,-148.8019 100.8349,-148.8019 100.8349,-154.8019 94.8349,-160.8019 88.8349,-160.8019"/>
<text text-anchor="middle" x="69" y="-135.8" font-family="Helvetica,sans-Serif" font-size="12.00" fill="#000000">Server</text>
</g>
<!-- Database -->
<g id="node4" class="node">
<title>Database</title>
<path fill="#e8f0fe" stroke="#000000" d="M83.8524,-58.6019C83.8524,-58.6019 28.1476,-58.6019 28.1476,-58.6019 22.1476,-58.6019 16.1476,-52.6019 16.1476,-46.6019 16.1476,-46.6019 16.1476,-27.7981 16.1476,-27.7981 16.1476,-21.7981 22.1476,-15.7981 28.1476,-15.7981 28.1476,-15.7981 83.8524,-15.7981 83.8524,-15.7981 89.8524,-15.7981 95.8524,-21.7981 95.8524,-27.7981 95.8524,-27.7981 95.8524,-46.6019 95.8524,-46.6019 95.8524,-52.6019 89.8524,-58.6019 83.8524,-58.6019"/>
<text text-anchor="middle" x="56" y="-33.6" font-family="Helvetica,sans-Serif" font-size="12.00" fill="#000000">Database</text>
</g>
<!-- Server&#45;&gt;Database -->
<g id="edge3" class="edge">
<title>Server-&gt;Database</title>
<path fill="none" stroke="#707070" d="M66.243,-117.726C64.4211,-103.4026 62.0039,-84.4002 59.9753,-68.4518"/>
<polygon fill="#707070" stroke="#707070" points="58.7084,-58.4923 64.4344,-67.8445 59.3394,-63.4523 59.9703,-68.4124 59.9703,-68.4124 59.9703,-68.4124 59.3394,-63.4523 55.5063,-68.9802 58.7084,-58.4923 58.7084,-58.4923"/>
</g>
<!-- ModelServing -->
<g id="node5" class="node">
<title>ModelServing</title>
<path fill="#e8f0fe" stroke="#000000" d="M209.8434,-58.6019C209.8434,-58.6019 132.1566,-58.6019 132.1566,-58.6019 126.1566,-58.6019 120.1566,-52.6019 120.1566,-46.6019 120.1566,-46.6019 120.1566,-27.7981 120.1566,-27.7981 120.1566,-21.7981 126.1566,-15.7981 132.1566,-15.7981 132.1566,-15.7981 209.8434,-15.7981 209.8434,-15.7981 215.8434,-15.7981 221.8434,-21.7981 221.8434,-27.7981 221.8434,-27.7981 221.8434,-46.6019 221.8434,-46.6019 221.8434,-52.6019 215.8434,-58.6019 209.8434,-58.6019"/>
<text text-anchor="middle" x="171" y="-33.6" font-family="Helvetica,sans-Serif" font-size="12.00" fill="#000000">ModelServing</text>
</g>
<!-- Server&#45;&gt;ModelServing -->
<g id="edge4" class="edge">
<title>Server-&gt;ModelServing</title>
<path fill="none" stroke="#707070" d="M90.6316,-117.726C105.7438,-102.5842 126.0749,-82.2132 142.5067,-65.7491"/>
<polygon fill="#707070" stroke="#707070" points="149.7494,-58.4923 145.8703,-68.7492 146.2173,-62.0313 142.6852,-65.5703 142.6852,-65.5703 142.6852,-65.5703 146.2173,-62.0313 139.5001,-62.3914 149.7494,-58.4923 149.7494,-58.4923"/>
</g>
<!-- APIServer&#45;&gt;Server -->
<g id="edge2" class="edge">
<title>APIServer-&gt;Server</title>
<path fill="none" stroke="#707070" d="M69,-235.5397C69,-217.5337 69,-191.4613 69,-171.0091"/>
<polygon fill="#707070" stroke="#707070" points="69,-160.8988 73.5001,-170.8988 69,-165.8988 69.0001,-170.8988 69.0001,-170.8988 69.0001,-170.8988 69,-165.8988 64.5001,-170.8989 69,-160.8988 69,-160.8988"/>
</g>
</g>
</svg>